<svg xmlns="http://www.w3.org/2000/svg" viewBox="0 0 300 300"><defs><style>.cls-1{fill:#38bde9;}.cls-2{fill:#fff;}</style></defs><title>资源 1</title><g id="图层_2" data-name="图层 2"><g id="图层_1-2" data-name="图层 1"><circle class="cls-1" cx="150" cy="150" r="150"/><g id="Page-1-Copy-4"><g id="Group-3"><path id="Fill-1" class="cls-2" d="M225.57,145.24q41.58,0,42.15-40.74a44.5,44.5,0,0,0-1.64-13.63Q258,63.75,211.89,63.75h-94l-6,37.12h41.26q23.94,0,27.39,11.65a18.63,18.63,0,0,1,.66,4.58q-.42,16.32-28.68,16.29H116.77l-5.84,28H152c15.27,0,24.73,4.64,27.48,13.86a6.17,6.17,0,0,1,.45,3c0,14-9.64,21-28.5,21h-48.7l-6,37H209q56.69,0,57.55-45.57A70.41,70.41,0,0,0,264,170.21Q256.49,145,225.53,145"/></g><polygon id="Fill-4" class="cls-2" points="82.43 99.2 55.15 99.2 60.33 74.47 87.61 74.47 82.43 99.2"/><polygon id="Fill-6" class="cls-2" points="67.37 160.93 34.47 160.93 41.11 129.41 74.02 129.41 67.37 160.93"/><polygon id="Fill-8" class="cls-2" points="60.51 224.34 32.25 224.34 38 196.95 66.26 196.95 60.51 224.34"/><polygon id="Fill-10" class="cls-2" points="72.7 160.96 64.08 199.4 102.97 199.4 111.71 160.96 72.7 160.96"/><polygon id="Fill-12" class="cls-2" points="80.93 98.54 73.48 131.08 107.01 131.08 114.4 98.54 80.93 98.54"/></g></g></g></svg>